<svg xmlns="http://www.w3.org/2000/svg" version="1.1" xmlns:xlink="http://www.w3.org/1999/xlink" xmlns:svgjs="http://svgjs.com/svgjs" width="424" height="424"><svg width="424" height="424" viewBox="0 0 424 424" fill="none" xmlns="http://www.w3.org/2000/svg">
<mask id="SvgjsMask1000" style="mask-type:alpha" maskUnits="userSpaceOnUse" x="44" y="77" width="337" height="325">
<path d="M63.3904 88.8621C64.4558 80.9272 68.9834 76.081 74.0438 77.1461L210.406 105.904H214.668L351.031 77.1461C356.091 76.081 360.619 80.9272 361.684 88.8621L380.86 231.585C381.925 239.509 376.599 245.218 375.533 248.626L274.327 402H150.748L47.4104 248.626C46.3451 245.218 43.1491 239.509 44.2144 231.585L63.3904 88.8621Z" fill="#FF6600"></path>
</mask>
<g mask="url(#mask0_5:32)">
<path d="M63.3904 88.8621C64.4558 80.9272 68.9834 76.081 74.0438 77.1461L210.406 105.904H214.668L351.031 77.1461C356.091 76.081 360.619 80.9272 361.684 88.8621L380.86 231.585C381.925 239.509 376.599 245.218 375.533 248.626L274.327 402H150.748L47.4104 248.626C46.3451 245.218 43.1491 239.509 44.2144 231.585L63.3904 88.8621Z" fill="#F64F00"></path>
<path d="M180.952 132.176L73.3095 134.286L64.8685 220.787L168.271 373.746L154.554 330.496L172.491 350.538L283.279 350.538" stroke="black" stroke-width="12" stroke-miterlimit="16"></path>
<path d="M77.234 106.823L219.989 382.682" stroke="#F64F00" stroke-width="2"></path>
<path d="M88.9526 107.888L231.707 383.747" stroke="#F64F00" stroke-width="3"></path>
<path d="M101.737 111.083L244.491 386.943" stroke="#F64F00" stroke-width="4"></path>
<path d="M113.455 112.148L256.21 388.008" stroke="#F64F00" stroke-width="5"></path>
<path d="M125.174 112.148L267.929 388.008" stroke="#F64F00" stroke-width="6"></path>
<path d="M137.958 114.278L280.713 390.138" stroke="#F64F00" stroke-width="7"></path>
<path d="M149.677 113.213L292.431 389.073" stroke="#F64F00" stroke-width="8"></path>
<path d="M162.461 114.278L305.215 390.138" stroke="#F64F00" stroke-width="9"></path>
<path d="M175.245 114.278L317.999 390.138" stroke="#F64F00" stroke-width="10"></path>
<path d="M326.872 249.973C326.958 249.657 327.038 249.348 327.116 249.046C327.267 248.463 327.411 247.906 327.576 247.377L326.872 249.973ZM326.872 249.973C325.766 255.723 322.85 258.566 318.123 258.566H290.921C288.155 258.566 286.697 257.701 286.647 255.97C286.614 254.854 286.749 253.583 287.051 252.175H287.954V249.805V249.767V248.675L284.576 247.759L284.56 247.819C284.501 248.036 284.417 248.346 284.343 248.675H264.824C263.467 253.806 262.662 258.937 262.511 264.13C262.36 269.261 263.416 274.269 265.629 279.153L326.872 249.973ZM95.4255 252.855C96.9416 253.804 98.5379 254.534 100.195 255.066H89.5833H86.8641L86.1919 257.701L77.8954 290.219L76.7816 294.584H81.2867H125.133C135.22 294.584 144.121 290.047 151.645 281.464C159.054 273.069 164.238 263.302 167.138 252.086L167.14 252.078L178.453 207.876L178.459 207.856L178.463 207.836C181.247 196.406 181.068 186.115 177.566 177.23C175.773 172.648 173.07 168.97 169.369 166.394C165.678 163.825 161.234 162.519 156.224 162.278L156.15 162.274L156.077 162.274L92.671 161.903L87.2342 161.871L89.4561 166.833L96.5833 182.75C91.7382 189.854 88.0007 198.885 85.2376 209.663C82.1811 221.584 82.4268 232.45 86.3379 242.134L86.3807 242.241L86.4304 242.344C88.6811 247.013 91.7066 250.527 95.4255 252.855ZM114.677 213.942L114.692 213.888L114.705 213.834C114.865 213.18 115.022 212.47 115.17 211.805L115.175 211.784L115.18 211.76L115.185 211.736C115.838 208.582 116.751 205.927 117.885 203.729L118.955 201.654C128.554 201.746 138.518 201.791 148.816 201.791C149.021 201.791 149.193 201.8 149.333 201.813C149.358 202.429 149.272 203.449 148.857 204.979L148.851 205.002L148.845 205.024L145.85 216.676H114.925C114.612 216.676 114.37 216.658 114.19 216.633C114.19 216.565 114.192 216.486 114.198 216.396C114.231 215.836 114.372 215.04 114.677 213.942ZM193.39 199.597L194.273 201.791H196.638C204.096 201.791 211.249 201.729 218.135 201.668C222.497 201.64 226.874 201.612 231.272 201.596L161.918 288.907L157.408 294.584H164.658H195.884H197.606L198.656 293.22L271.314 198.882L271.743 198.325L271.923 197.646L276.656 179.871L278.027 182.961L264.4 236.31L263.284 240.676H267.791H324.66C324.972 240.676 325.225 240.691 325.427 240.714C325.365 242.005 325.016 243.858 324.238 246.324L324.236 246.332C324.044 246.944 323.859 247.66 323.695 248.292C323.624 248.569 323.556 248.829 323.494 249.058L323.46 249.184L323.435 249.312C322.961 251.776 322.18 253.167 321.405 253.927C320.707 254.611 319.73 255.066 318.123 255.066H290.921C290.617 255.066 290.366 255.052 290.163 255.031C290.235 253.913 290.504 252.495 291.043 250.771L291.117 250.534L291.157 250.288C291.172 250.196 291.216 250.017 291.332 249.591L292.529 245.175H287.954H264.824H262.13L261.441 247.78C260.023 253.14 259.172 258.537 259.013 264.027C258.845 269.726 260.023 275.261 262.441 280.597L262.492 280.711L262.552 280.821C267.367 289.701 274.467 294.584 283.73 294.584H310.883C320.969 294.584 329.864 290.048 337.433 281.478C344.894 273.147 350.071 263.392 353.022 252.271C354.736 246.388 355.878 240.444 356.501 234.381C357.172 227.848 356.042 221.35 353.133 215.008L353.078 214.888L353.015 214.773C349.198 207.869 344.034 203.368 337.52 201.759C344.458 201.78 351.435 201.791 358.449 201.791H361.164L361.839 199.162L370.186 166.644L371.308 162.274H366.796H281.341H276.787H274.227H268.844H183.564H178.385L180.317 167.079L193.39 199.597Z" fill="black" stroke="#F64F00" stroke-width="7"></path>
</g>
<path opacity="0.2" d="M255.196 97.3658L351.041 77.1461C356.1 76.081 360.626 80.9272 361.691 88.8621L380.86 231.585C381.925 239.509 376.6 245.218 375.535 248.626L274.365 402H170C233.897 299.751 255.196 174.07 255.196 97.3658Z" fill="black"></path>
</svg><style>@media (prefers-color-scheme: light) { :root { filter: none; } }
@media (prefers-color-scheme: dark) { :root { filter: none; } }
</style></svg>